# xmcd
#
# Track frame offsets:
# 150
# 15299
# 30167
# 38177
# 48206
# 58368
# 74367
# 97676
# 120284
# 145288
#
# Disc length: 1953 seconds
#
#
# Revision: 0
# Processed by: cddbd v1.5.1PL0 Copyright (c) Steve Scherf et al.
# Submitted via: FreeRIP 2.70 
#
DISCID=74079f0a
DTITLE=Canibus - The Brainstream [Mix Tape]
DYEAR=2003
DGENRE=Hip-Hop
TTITLE0=Intro/The Brainstream
TTITLE1=Got Bitches
TTITLE2=Horsemen Enforcements (Featuring Kurupt and Ras Kass)
TTITLE3=Here 4 Free
TTITLE4=Microphone Meticulousness
TTITLE5=I Can - U Can't
TTITLE6=U Didn't Care (Remix)
TTITLE7=How Many MC's
TTITLE8=Falster Ego (Featuring Rip The Jacker)
TTITLE9=Outro
EXTD=
EXTT0=
EXTT1=
EXTT2=
EXTT3=
EXTT4=
EXTT5=
EXTT6=
EXTT7=
EXTT8=
EXTT9=
PLAYORDER=
